/* XPM */
static char *bitcoin32[] = {
/* columns rows colors chars-per-pixel */
"32 32 256 2 ",
"   c #000000",
".  c #030A09",
"X  c #070504",
"o  c #150B0A",
"O  c #1B0A0A",
"+  c #180000",
"@  c #051513",
"#  c #0A1D1A",
"$  c #051A16",
"%  c #1A1C1A",
"&  c #1F1614",
"*  c #230E0E",
"=  c #290F0E",
"-  c #3E0000",
";  c #251212",
":  c #3D1B1A",
">  c #0A231F",
",  c #19231F",
"<  c #2D201E",
"1  c #0C2521",
"2  c #012B24",
"3  c #0C2A26",
"4  c #1C2D29",
"5  c #142A25",
"6  c #00352B",
"7  c #17352F",
"8  c #123630",
"9  c #143E38",
"0  c #252724",
"q  c #342724",
"w  c #2C3A35",
"e  c #333A34",
"r  c #450C0B",
"t  c #451918",
"y  c #4A1B17",
"u  c #600F0E",
"i  c #52201F",
"p  c #592F29",
"a  c #40322A",
"s  c #6F2827",
"d  c #682625",
"f  c #7C2E2D",
"g  c #732A29",
"h  c #66322F",
"j  c #6B3B37",
"k  c #7F3F3B",
"l  c #08443A",
"z  c #14433B",
"x  c #26453E",
"c  c #52423D",
"v  c #60443E",
"b  c #0F5348",
"n  c #31554C",
"m  c #3C5D57",
"M  c #146156",
"N  c #22695C",
"B  c #34665C",
"V  c #1A7265",
"C  c #366C60",
"Z  c #2A7669",
"A  c #30776B",
"S  c #51574F",
"D  c #575E56",
"F  c #7A4945",
"G  c #735E56",
"H  c #406257",
"J  c #547662",
"K  c #776960",
"L  c #7B796F",
"P  c #BA1313",
"I  c #832726",
"U  c #8A3634",
"Y  c #903B39",
"T  c #B83836",
"R  c #D9332F",
"E  c #E22624",
"W  c #89443F",
"Q  c #AE403E",
"!  c #984947",
"~  c #A14A47",
"^  c #B24442",
"/  c #BB4A48",
"(  c #BA5550",
")  c #A06056",
"_  c #B3675F",
"`  c #9D6A62",
"'  c #B96864",
"]  c #A07469",
"[  c #B4726A",
"{  c #B67D78",
"}  c #C64C47",
"|  c #CD5C57",
" . c #EA5856",
".. c #F35856",
"X. c #FD5E5C",
"o. c #F55B59",
"O. c #F8605D",
"+. c #C46967",
"@. c #CD7069",
"#. c #D0736E",
"$. c #C17E77",
"%. c #E66360",
"&. c #FF6563",
"*. c #FC6A65",
"=. c #FF6D6A",
"-. c #E3726E",
";. c #FC7672",
":. c #F37B75",
">. c #148A79",
",. c #2A8776",
"<. c #3A8B7D",
"1. c #618275",
"2. c #8C877A",
"3. c #95887C",
"4. c #B28179",
"5. c #C8837D",
"6. c #ED847C",
"7. c #0F9C87",
"8. c #229181",
"9. c #359B89",
"0. c #1EAE98",
"q. c #19B79B",
"w. c #33A28F",
"e. c #39A890",
"r. c #3EB09C",
"t. c #2EBDA7",
"y. c #35B9A3",
"u. c #499A88",
"i. c #5BA996",
"p. c #6FA493",
"a. c #67B29F",
"s. c #7BB09F",
"d. c #58B8A4",
"f. c #64B6A4",
"g. c #74B5A2",
"h. c #0FC5A9",
"j. c #17CAAE",
"k. c #21C0A6",
"l. c #3DCFB6",
"z. c #3ED2B9",
"x. c #45C0AA",
"c. c #5ACDB7",
"v. c #42D4BC",
"b. c #47D7BF",
"n. c #58D4BD",
"m. c #62C1AE",
"M. c #71C0AC",
"N. c #6ACAB6",
"B. c #7DD0BB",
"V. c #18EECE",
"C. c #1AF2D1",
"Z. c #27EACC",
"A. c #32F4D7",
"S. c #4EDDC7",
"D. c #53DAC3",
"F. c #5ADBC4",
"G. c #6BD8C1",
"H. c #76D5C5",
"J. c #72D8C2",
"K. c #49E6CC",
"L. c #48E3C9",
"P. c #58E5CB",
"I. c #4DEED3",
"U. c #57ECD1",
"Y. c #4BF4D9",
"T. c #4DF0D4",
"R. c #5BF7DE",
"E. c #6BE3C8",
"W. c #74ECD9",
"Q. c #6BF3DE",
"!. c #58FFE7",
"~. c #66FFEB",
"^. c #8D8B85",
"/. c #9F8D82",
"(. c #919083",
"). c #9D998B",
"_. c #A38B81",
"`. c #BF8D83",
"'. c #AB998C",
"]. c #B59189",
"[. c #8CAA9D",
"{. c #8CA797",
"}. c #94A397",
"|. c #86B09F",
" X c #BBA098",
".X c #8EB9AC",
"XX c #93B8A7",
"oX c #A5B3A2",
"OX c #A3B6AB",
"+X c #A8BDB3",
"@X c #BFBEB4",
"#X c #C28A82",
"$X c #D88986",
"%X c #C29B8F",
"&X c #C29A93",
"*X c #E28B82",
"=X c #E78A88",
"-X c #F08A89",
";X c #E4928F",
":X c #EC9490",
">X c #E69996",
",X c #FF9392",
"<X c #CEA09A",
"1X c #CEA7A2",
"2X c #DFAEAB",
"3X c #E6ABA9",
"4X c #FFB1AE",
"5X c #EFB6B6",
"6X c #FBB6B5",
"7X c #8AC8B4",
"8X c #9AC4B9",
"9X c #A9C9BF",
"0X c #B7C1BA",
"qX c #EFC4BD",
"wX c #8ADCCE",
"eX c #99D1C4",
"rX c #BAC9C1",
"tX c #A8D7CC",
"yX c #B7D5CC",
"uX c #BBDCD5",
"iX c #90E1CF",
"pX c #8FEBDA",
"aX c #87F0DF",
"sX c #AFE0D7",
"dX c #A2E3D8",
"fX c #8DFAE9",
"gX c #A5FCED",
"hX c #C6CEC3",
"jX c #D3CBC6",
"kX c #CDD0CA",
"lX c #C7D8D1",
"zX c #DCDAD6",
"xX c #E3CAC7",
"cX c #FFC2C0",
"vX c #FFC8C5",
"bX c #E1DEDA",
"nX c #FCD9D5",
"mX c #DBE0DC",
"MX c #F0E2DC",
"NX c #FFE0DF",
"BX c #DAE8E6",
"VX c #D4FDF8",
"CX c #EFECEB",
"ZX c #EBE8E5",
"AX c #FDEDEE",
"SX c #F3E6E5",
"DX c #EAF2EF",
"FX c #F3F0EE",
"GX c #FFEEF0",
"HX c #EFF2F1",
"JX c #ECFFFF",
"KX c #FEF2F4",
"LX c #FEF7FC",
"PX c #F2FFFF",
"IX c #FEFFFF",
"UX c None",
/* pixels */
"UXUXUXUXUXUXUXUXUXUXUXUXG.G.M.g.s.|.XXoXUXUXUXUXUXUXUXUXUXUXUXUX",
"UXUXUXUXUXUXUXUXUXP.n.u.C x 4 , , 0 e S L '.%XUXUXUXUXUXUXUXUXUX",
"UXUXUXUXUXUXUXUXD.<.7                     0 G `.UXUXUXUXUXUXUXUX",
"UXUXUXUXUXUXT.r.8                             < ` *XUXUXUXUXUXUX",
"UXUXUXUXUXY.,.                                    F 6.UXUXUXUXUX",
"UXUXUXUXY.Z                                         j :.UXUXUXUX",
"UXUXUXY.,.        4 w e a p W ! r                     W ;.UXUXUX",
"UXUXUXy.        > N.7XhXMXnX6.vXNX$X-                   ( UXUXUX",
"UXUXK.1         5 c.a.[.0XDX<X1XIXIX6Xu                 * *.UXUX",
"UXT.,.          8 D.d.u.J 2.4.#XIXPXIXNXI                 Y *.UX",
"UXL.1           3 l.m.8XlXbX3.) 5.CXPXPXKX~               * O.UX",
"UXw.            @ k.H.IXIX[.}.].[ $XxXPXJXIX+.X             ^ UX",
"I.N             . t.z.ZX.Xp.IX_.hXMX#.3XJXJXIX$X+           g &.",
"K.z               0.W.m.f.LXLX(.kXIXHX$X3XJXJXIX{           y X.",
"b.3               7.fXx.eXIXCX{.mXIXIXIX;X=X5X5XcXi         = ..",
"v.>               >.R.H.eXuXGX+XIXLXjX#X| E -X5X4XT         O  .",
"z.1               V A.wXKXeXyX9X+X(.] $.2XR >XJX6XP         O  .",
"L.1               V C.wXLXKXd.i.OXbXFXIXxX} 3XCX,X(         * ..",
"L.9               8.V.sXLXuX0.e.9XmXIXIX_ bXCX;XvX&X        t X.",
"K.N               l Z.CXAXh.q.tXFXzXrX/. XIXMX-.IX2X        s &.",
"UX9.              $ K.LXv.j.BXLXBXuXOX@XMXqX:X:.4X_         Q UX",
"UXb.#             6 aXdXS.BXVXgXpXiXtX0X^.v y t +         O o.UX",
"UXU.A             2 !.~.pXQ.y.<.m A l                     U &.UX",
"UXUXn.#             b M 2 l .                           o X.UXUX",
"UXUXF.u.          > X                                   ^ &.UXUX",
"UXUXUXE.B         M 8.                                f *.UXUXUX",
"UXUXUXUXJ.n       . @                             X d *.UXUXUXUX",
"UXUXUXUXUXB.H                                     I *.UXUXUXUXUX",
"UXUXUXUXUXUX7X1.,                             * ^ *.UXUXUXUXUXUX",
"UXUXUXUXUXUXUX.X[.D %                     ; U O.*.UXUXUXUXUXUXUX",
"UXUXUXUXUXUXUXUXUXoX).K c q ; O o ; : h ~ %.=.UXUXUXUXUXUXUXUXUX",
"UXUXUXUXUXUXUXUXUXUXUXUX%X#X4.[ [ @.-.:.UXUXUXUXUXUXUXUXUXUXUXUX"
};
