/* XPM */
static char *bitcoin64[] = {
/* columns rows colors chars-per-pixel */
"48 48 256 2 ",
"   c #000000",
".  c #030C0A",
"X  c #0B0908",
"o  c #150C0B",
"O  c #180808",
"+  c #0C100F",
"@  c #17100F",
"#  c #061916",
"$  c #1B1917",
"%  c #2D0808",
"&  c #371716",
"*  c #2D0B0A",
"=  c #07221D",
"-  c #2E211E",
";  c #0C2B26",
":  c #192A26",
">  c #0F3D36",
",  c #163630",
"<  c #302D29",
"1  c #410000",
"2  c #461A19",
"3  c #580D0C",
"4  c #770D0C",
"5  c #48211E",
"6  c #492927",
"7  c #4C3B36",
"8  c #6C2524",
"9  c #7B3936",
"0  c #6B3331",
"q  c #16443C",
"w  c #084038",
"e  c #3F423C",
"r  c #4E443E",
"t  c #6F433F",
"y  c #174B43",
"u  c #175249",
"i  c #0A574C",
"p  c #285D52",
"a  c #2A534B",
"s  c #19655A",
"d  c #2A655A",
"f  c #336459",
"g  c #1A796A",
"h  c #26796C",
"j  c #4F554D",
"k  c #764B46",
"l  c #765248",
"z  c #66645B",
"x  c #786959",
"c  c #5C7F72",
"v  c #4B7661",
"b  c #6E7B6D",
"n  c #737666",
"m  c #8E1412",
"M  c #9A2B29",
"N  c #8D3433",
"B  c #983634",
"V  c #82302F",
"C  c #A72A28",
"Z  c #B03733",
"A  c #CF332F",
"S  c #E63533",
"D  c #FF3E3E",
"F  c #B6433F",
"G  c #964F48",
"H  c #8B574D",
"J  c #B84745",
"K  c #AD524A",
"L  c #B4524C",
"P  c #AB5654",
"I  c #BC5953",
"U  c #A74746",
"Y  c #AC635A",
"T  c #BA675F",
"R  c #946D62",
"E  c #947469",
"W  c #8B7B6F",
"Q  c #BE7E76",
"!  c #B27169",
"~  c #CE4C4A",
"^  c #C74845",
"/  c #C85957",
"(  c #DC5957",
")  c #D44B48",
"_  c #E95755",
"`  c #FC5D5C",
"'  c #F35A59",
"]  c #FF4140",
"[  c #FE615F",
"{  c #CA6B65",
"}  c #D86C68",
"|  c #D97B76",
" . c #C77A70",
".. c #E56966",
"X. c #FF6562",
"o. c #FE6A66",
"O. c #F96D6A",
"+. c #E9726C",
"@. c #FB756F",
"#. c #E97A74",
"$. c #F87774",
"%. c #14947F",
"&. c #388977",
"*. c #2B907F",
"=. c #298576",
"-. c #548376",
";. c #6D8475",
":. c #738779",
">. c #8A8375",
",. c #998B7D",
"<. c #AA8278",
"1. c #B1897D",
"2. c #E1827A",
"3. c #289786",
"4. c #389B89",
"5. c #0FAE93",
"6. c #38A08F",
"7. c #26B69E",
"8. c #36B39E",
"9. c #2FA692",
"0. c #1CBDA2",
"q. c #37B8A3",
"w. c #57988A",
"e. c #489989",
"r. c #689A88",
"t. c #77998A",
"y. c #5BAB98",
"u. c #45B29D",
"i. c #49A893",
"p. c #66A896",
"a. c #74AD9D",
"s. c #47B9A4",
"d. c #57B7A4",
"f. c #63BAA7",
"g. c #79B8A6",
"h. c #04C9AA",
"j. c #19C5AB",
"k. c #1CCEB3",
"l. c #1AD5BA",
"z. c #29C5AC",
"x. c #3DC3AC",
"c. c #2BD3BA",
"v. c #3AD2BA",
"b. c #33CCB3",
"n. c #48CCB6",
"m. c #58C6B1",
"M. c #44D2BB",
"N. c #4DD4BF",
"B. c #58D4BE",
"V. c #4FC0AC",
"C. c #69C6B4",
"Z. c #78C7B6",
"A. c #67D4BD",
"S. c #73C8B3",
"D. c #1FDEC1",
"F. c #18EECE",
"G. c #22E7C9",
"H. c #38E7CD",
"J. c #38EED2",
"K. c #4ADBC2",
"L. c #45DCC3",
"P. c #56D9C2",
"I. c #68D7C3",
"U. c #73D9C7",
"Y. c #4AE4CA",
"T. c #47E7CC",
"R. c #5BE3CB",
"E. c #53E6CD",
"W. c #4CEDD2",
"Q. c #44EED3",
"!. c #56EDD4",
"~. c #4AF3D8",
"^. c #51F3D9",
"/. c #69E3CE",
"(. c #79E2D1",
"). c #6FE7D1",
"_. c #41FFE3",
"`. c #63F8E1",
"'. c #8D998B",
"]. c #A3998D",
"[. c #A79C92",
"{. c #AF9387",
"}. c #89A89A",
"|. c #95AA9A",
" X c #A5AA9B",
".X c #BAA295",
"XX c #86B7A6",
"oX c #98B7A9",
"OX c #96B6AA",
"+X c #ACB5AB",
"@X c #B5B4AC",
"#X c #B0B4AB",
"$X c #C78C83",
"%X c #DA8B85",
"&X c #C6958C",
"*X c #D6918B",
"=X c #C39C96",
"-X c #EA9D9B",
";X c #F99796",
":X c #F58B89",
">X c #DBA09C",
",X c #C9ADA7",
"<X c #CABBB5",
"1X c #D4B2AD",
"2X c #E3B4B2",
"3X c #FFB8B5",
"4X c #F2AAA8",
"5X c #90C6B7",
"6X c #A8C2B7",
"7X c #B8C6BE",
"8X c #EAC0BE",
"9X c #86DBCD",
"0X c #99DFD3",
"qX c #8EDFD1",
"wX c #A4D9CF",
"eX c #B7D2CA",
"rX c #B6DDD4",
"tX c #B1D2C9",
"yX c #97EDDD",
"uX c #BFE5DD",
"iX c #8FFCEC",
"pX c #C6CDC6",
"aX c #C8D1CB",
"sX c #DCD1CD",
"dX c #D3D9D3",
"fX c #C5DED9",
"gX c #E6CAC6",
"hX c #E6D0CD",
"jX c #E5D9D6",
"kX c #FFD7D6",
"lX c #FFCCC9",
"zX c #C5E3DC",
"xX c #D1E2DD",
"cX c #E8E1DE",
"vX c #CDE8E2",
"bX c #D9E7E3",
"nX c #C4FCF2",
"mX c #E3E7E4",
"MX c #ECE5E3",
"NX c #ECECEB",
"BX c #E5E9E7",
"VX c #F3ECEC",
"CX c #FFEDEE",
"ZX c #FAE6E5",
"AX c #F7F1EE",
"SX c #FFEFF3",
"DX c #ECFEFD",
"FX c #EDF8F5",
"GX c #F3F5F3",
"HX c #FFF2F5",
"JX c #FFF6FC",
"KX c #F4FEFE",
"LX c #FEFEFF",
"PX c #F4F8F7",
"IX c #E3F0ED",
"UX c None",
/* pixels */
"UXUXUXUXUXUXUXUXUXUXUXUXUXUXUXUXUXUXUXUXf.S.Z.g.XXXX}.}.UXUXUXUXUXUXUXUXUXUXUXUXUXUXUXUXUXUXUXUX",
"UXUXUXUXUXUXUXUXUXUXUXUXUXUXUXUXm.I.A.C.p.w.-.-.-.;.;.t.|. X X].UXUXUXUXUXUXUXUXUXUXUXUXUXUXUXUX",
"UXUXUXUXUXUXUXUXUXUXUXUXUXUXP.R.d.&.a : +             + - e z '..X.XUXUXUXUXUXUXUXUXUXUXUXUXUXUX",
"UXUXUXUXUXUXUXUXUXUXUXUXK.R.u.p #                             o r E &X{.UXUXUXUXUXUXUXUXUXUXUXUX",
"UXUXUXUXUXUXUXUXUXUXM.W.V.p                                         7 ! *XQ UXUXUXUXUXUXUXUXUXUX",
"UXUXUXUXUXUXUXUXUXK.E.&..                                             X l %X| UXUXUXUXUXUXUXUXUX",
"UXUXUXUXUXUXUXUXY.K.u                                                     6 | 2.UXUXUXUXUXUXUXUX",
"UXUXUXUXUXUXUXW.M.;                                                         $ { #.UXUXUXUXUXUXUX",
"UXUXUXUXUXUXT.M.=                                                             o { #.UXUXUXUXUXUX",
"UXUXUXUXUXY.Y.=               X + $ - 6 6 0 9 3 X                               @ ..+.UXUXUXUXUX",
"UXUXUXUXM.~.q             f p.r.}.'.,.<.Q } ;X3X+.M 1                             2 @...UXUXUXUX",
"UXUXUXUX~.h               e.).g.+XdXMXjXsX&XT DXLXHX3Xm                             9 @.UXUXUXUX",
"UXUXUXK.x..               4.A.y.p.|.pXNXLXFXK hXKXDXKXkXC                             / o.UXUXUX",
"UXUXUX^.y                 e.B.f.p.t.;.>.[.<XY 2XLXFXDXDXZXA O                         2 @.( UXUX",
"UXUXY.8.                  9.P.d.y.r.;.;.W ! Y $XLXKXFXDXDXJX_ %                         ^ o.UXUX",
"UXUX~.u                   4.P.d.d.g.oXeXNX@XE Y $XGXKXFXDXDXLX$.1                       5 o.UXUX",
"UXK.x.                    =.L.m.BXHXLXLXaXn ].<.K I hXLXDXDXDXLX;X4                       ) X.UX",
"UXW.=.                    g Q.q.bXLXLXaXv +XsXR =X>XF 2XKXDXDXDXLX3Xm                     B X.UX",
"UXW.u                     s ~.0.Z.LXxX&.t.LXbXH ,XLXgX^ %XKXDXFXDXDXkXZ                   5 X.UX",
"M.M.=                     u J.n.A.rXi.e.VXLXaXx pXLXLXNX( } DXDXDXDXDXSXM                 O _ _ ",
"K.q.                      q G.(.wX7.u.mXLXLXaXn sXLXGXKXKX| ( MXDXDXDXKXlX1                 ~ ` ",
"Y.6.                      ; D.(.wX5.rXLXVXLXpX:.mXLXGXGXKXKX2X+.hXMXcXNXLX}                 F [ ",
"Y.3.                      # l.).9Xx.S.bXLXLX7Xt.AXPXPXLXLXNXhX( S +.$.$.:X:X8               B X.",
"Y.3.                      . z./.B.I.vXs.xXLX6X}.LXLXGXsX=XI A ) S -XFXMXMXo.B               N X.",
"W.*.                        0.!.v.U.LXfX8.IXaX5XNX#X>.H G T *X*XA +.PXDXMX] M               N X.",
"T.*.                        3.^.c.0XSXJXfX5X5Xa.t.:.].<XhXNXLX>XA ( GXDX;XD U               B X.",
"T.4.                        9.J.k.fXSXCXJXC.9.a.xXLXLXLXLXLXcXZ *X4XgXDX' ;XP               F ` ",
"L.q.                      = H.c.b.BXCXHXwX7.d.i.a.eXJXLXPXLXQ J LXhX2XMX..LXJ               ^ ` ",
"M.M.=                     . 9.G.K.CXSXmXz.x.8.d.tX6X|.aXLXjXG jXLXhX2X:X-XLXJ             O _ ' ",
"UXY.q                       y F.I.SXSXP.j.0.m.mXLXLXVX6X#XW .XLXLXLX*X..DXLX/             2 X.UX",
"UX!.h                       w F.qXJX0Xh.h.U.SXLXHXmXtX}.b ].<X1X1X2X..$.ZXkX(             V o.UX",
"UXN.s.                      ; l.bXVXh.k.uXJXVXwX9Xg.XX7XNXLXAXgX$XL I L C 8 2             ~ ` UX",
"UXUX!.q                     i ~.mXv.P.VXIX0X(.(.yXnXvXuXoX:.z 7 - @ X                   2 X.UXUX",
"UXUXR.4.                    i `.U.R.nXiXY.^./.Z.w.d 7.g .                               J [ UXUX",
"UXUXn.R.,                     v._.P.5.%.L.s =       .                                 & X._ UXUX",
"UXUXUXB.i.                    > w +     .                                             ~ [ UXUXUX",
"UXUXUXUX/.d                 .                                                       8 o.UXUXUXUX",
"UXUXUXUXm.A.:               s 9.                                                  * [ ' UXUXUXUX",
"UXUXUXUXUXA.f..             g H.                                                X _ X.UXUXUXUXUX",
"UXUXUXUXUXUXU.y..           . #                                                 ~ X.UXUXUXUXUXUX",
"UXUXUXUXUXUXUXU.p.+                                                         X ~ X.UXUXUXUXUXUXUX",
"UXUXUXUXUXUXUXUX5Xp.:                                                     & _ X.UXUXUXUXUXUXUXUX",
"UXUXUXUXUXUXUXUXUXg.XXj   .                                             0 ` X.UXUXUXUXUXUXUXUXUX",
"UXUXUXUXUXUXUXUXUXUXg.oX:.<                                         5 J X.` UXUXUXUXUXUXUXUXUXUX",
"UXUXUXUXUXUXUXUXUXUXUXUXOXoXb <                                 5 U o.X.UXUXUXUXUXUXUXUXUXUXUXUX",
"UXUXUXUXUXUXUXUXUXUXUXUXUX'. X XW j < @                 o 2 9 / o.o.' UXUXUXUXUXUXUXUXUXUXUXUXUX",
"UXUXUXUXUXUXUXUXUXUXUXUXUXUXUXUX[..X{.<.R H k t 9 k G P { +.@.O.UXUXUXUXUXUXUXUXUXUXUXUXUXUXUXUX",
"UXUXUXUXUXUXUXUXUXUXUXUXUXUXUXUXUXUXUX{.$X$X$X%X2.2.#.| } UXUXUXUXUXUXUXUXUXUXUXUXUXUXUXUXUXUXUX"
};
